<mxfile host="Electron" agent="Mozilla/5.0 (X11; Linux x86_64) AppleWebKit/537.36 (KHTML, like Gecko) draw.io/27.0.5 Chrome/134.0.6998.205 Electron/35.3.0 Safari/537.36" version="27.0.5">
  <diagram name="Page-1" id="bUCiM1qFowUAxsoKtDyz">
    <mxGraphModel dx="2422" dy="2086" grid="1" gridSize="10" guides="1" tooltips="1" connect="1" arrows="1" fold="1" page="1" pageScale="1" pageWidth="850" pageHeight="1100" math="0" shadow="0">
      <root>
        <mxCell id="0" />
        <mxCell id="1" parent="0" />
        <mxCell id="X4-yvwJKSVV4VdA6sDTU-1" value="crm_cust_info" style="swimlane;fontStyle=0;childLayout=stackLayout;horizontal=1;startSize=30;horizontalStack=0;resizeParent=1;resizeParentMax=0;resizeLast=0;collapsible=1;marginBottom=0;whiteSpace=wrap;html=1;fillColor=#dae8fc;strokeColor=#6c8ebf;fontSize=26;rounded=1;" parent="1" vertex="1">
          <mxGeometry x="40" y="250" width="200" height="110" as="geometry" />
        </mxCell>
        <mxCell id="X4-yvwJKSVV4VdA6sDTU-2" value="cst_id" style="text;strokeColor=none;fillColor=none;align=left;verticalAlign=middle;spacingLeft=4;spacingRight=4;overflow=hidden;points=[[0,0.5],[1,0.5]];portConstraint=eastwest;rotatable=0;whiteSpace=wrap;html=1;" parent="X4-yvwJKSVV4VdA6sDTU-1" vertex="1">
          <mxGeometry y="30" width="200" height="40" as="geometry" />
        </mxCell>
        <mxCell id="X4-yvwJKSVV4VdA6sDTU-21" value="cst_key" style="text;strokeColor=none;fillColor=none;align=left;verticalAlign=middle;spacingLeft=4;spacingRight=4;overflow=hidden;points=[[0,0.5],[1,0.5]];portConstraint=eastwest;rotatable=0;whiteSpace=wrap;html=1;" parent="X4-yvwJKSVV4VdA6sDTU-1" vertex="1">
          <mxGeometry y="70" width="200" height="40" as="geometry" />
        </mxCell>
        <mxCell id="X4-yvwJKSVV4VdA6sDTU-5" value="Customer Information" style="text;html=1;align=center;verticalAlign=middle;whiteSpace=wrap;rounded=0;" parent="1" vertex="1">
          <mxGeometry x="75" y="220" width="130" height="30" as="geometry" />
        </mxCell>
        <mxCell id="X4-yvwJKSVV4VdA6sDTU-6" value="crm_prd_info" style="swimlane;fontStyle=0;childLayout=stackLayout;horizontal=1;startSize=30;horizontalStack=0;resizeParent=1;resizeParentMax=0;resizeLast=0;collapsible=1;marginBottom=0;whiteSpace=wrap;html=1;fillColor=#dae8fc;strokeColor=#6c8ebf;fontSize=26;rounded=1;" parent="1" vertex="1">
          <mxGeometry x="40" y="110" width="200" height="70" as="geometry" />
        </mxCell>
        <mxCell id="X4-yvwJKSVV4VdA6sDTU-7" value="prd_key" style="text;strokeColor=none;fillColor=none;align=left;verticalAlign=middle;spacingLeft=4;spacingRight=4;overflow=hidden;points=[[0,0.5],[1,0.5]];portConstraint=eastwest;rotatable=0;whiteSpace=wrap;html=1;" parent="X4-yvwJKSVV4VdA6sDTU-6" vertex="1">
          <mxGeometry y="30" width="200" height="40" as="geometry" />
        </mxCell>
        <mxCell id="X4-yvwJKSVV4VdA6sDTU-8" value="Current &amp;amp; History Product Information&lt;div&gt;&lt;br&gt;&lt;/div&gt;" style="text;html=1;align=center;verticalAlign=middle;whiteSpace=wrap;rounded=0;" parent="1" vertex="1">
          <mxGeometry x="30" y="60" width="245" height="30" as="geometry" />
        </mxCell>
        <mxCell id="X4-yvwJKSVV4VdA6sDTU-9" value="crm_sales_details" style="swimlane;fontStyle=0;childLayout=stackLayout;horizontal=1;startSize=30;horizontalStack=0;resizeParent=1;resizeParentMax=0;resizeLast=0;collapsible=1;marginBottom=0;whiteSpace=wrap;html=1;fillColor=#dae8fc;strokeColor=#6c8ebf;fontSize=26;rounded=1;" parent="1" vertex="1">
          <mxGeometry x="-297.5" y="150" width="217.5" height="110" as="geometry" />
        </mxCell>
        <mxCell id="X4-yvwJKSVV4VdA6sDTU-10" value="prd_key" style="text;strokeColor=none;fillColor=none;align=left;verticalAlign=middle;spacingLeft=4;spacingRight=4;overflow=hidden;points=[[0,0.5],[1,0.5]];portConstraint=eastwest;rotatable=0;whiteSpace=wrap;html=1;" parent="X4-yvwJKSVV4VdA6sDTU-9" vertex="1">
          <mxGeometry y="30" width="217.5" height="40" as="geometry" />
        </mxCell>
        <mxCell id="X4-yvwJKSVV4VdA6sDTU-12" value="cst_id" style="text;strokeColor=none;fillColor=none;align=left;verticalAlign=middle;spacingLeft=4;spacingRight=4;overflow=hidden;points=[[0,0.5],[1,0.5]];portConstraint=eastwest;rotatable=0;whiteSpace=wrap;html=1;" parent="X4-yvwJKSVV4VdA6sDTU-9" vertex="1">
          <mxGeometry y="70" width="217.5" height="40" as="geometry" />
        </mxCell>
        <mxCell id="X4-yvwJKSVV4VdA6sDTU-11" value="Transactional Records about Sales &amp;amp; Orders" style="text;html=1;align=center;verticalAlign=middle;whiteSpace=wrap;rounded=0;" parent="1" vertex="1">
          <mxGeometry x="-320" y="110" width="245" height="30" as="geometry" />
        </mxCell>
        <mxCell id="X4-yvwJKSVV4VdA6sDTU-16" style="edgeStyle=orthogonalEdgeStyle;rounded=0;orthogonalLoop=1;jettySize=auto;html=1;" parent="1" source="X4-yvwJKSVV4VdA6sDTU-10" target="X4-yvwJKSVV4VdA6sDTU-7" edge="1">
          <mxGeometry relative="1" as="geometry" />
        </mxCell>
        <mxCell id="X4-yvwJKSVV4VdA6sDTU-17" style="edgeStyle=orthogonalEdgeStyle;rounded=0;orthogonalLoop=1;jettySize=auto;html=1;" parent="1" source="X4-yvwJKSVV4VdA6sDTU-12" target="X4-yvwJKSVV4VdA6sDTU-2" edge="1">
          <mxGeometry relative="1" as="geometry" />
        </mxCell>
        <mxCell id="X4-yvwJKSVV4VdA6sDTU-18" value="Extra Customer Information(Birthdate)" style="text;html=1;align=center;verticalAlign=middle;whiteSpace=wrap;rounded=0;" parent="1" vertex="1">
          <mxGeometry x="380" y="220" width="245" height="30" as="geometry" />
        </mxCell>
        <mxCell id="X4-yvwJKSVV4VdA6sDTU-19" value="erp_cust_az12" style="swimlane;fontStyle=0;childLayout=stackLayout;horizontal=1;startSize=30;horizontalStack=0;resizeParent=1;resizeParentMax=0;resizeLast=0;collapsible=1;marginBottom=0;whiteSpace=wrap;html=1;fillColor=#fff2cc;strokeColor=#d6b656;fontSize=26;rounded=1;" parent="1" vertex="1">
          <mxGeometry x="390" y="270" width="200" height="70" as="geometry" />
        </mxCell>
        <mxCell id="X4-yvwJKSVV4VdA6sDTU-20" value="cid" style="text;strokeColor=none;fillColor=none;align=left;verticalAlign=middle;spacingLeft=4;spacingRight=4;overflow=hidden;points=[[0,0.5],[1,0.5]];portConstraint=eastwest;rotatable=0;whiteSpace=wrap;html=1;" parent="X4-yvwJKSVV4VdA6sDTU-19" vertex="1">
          <mxGeometry y="30" width="200" height="40" as="geometry" />
        </mxCell>
        <mxCell id="X4-yvwJKSVV4VdA6sDTU-23" value="Location of Customers(Country)" style="text;html=1;align=center;verticalAlign=middle;whiteSpace=wrap;rounded=0;" parent="1" vertex="1">
          <mxGeometry x="400" y="400" width="245" height="30" as="geometry" />
        </mxCell>
        <mxCell id="X4-yvwJKSVV4VdA6sDTU-24" value="er_loc_a101" style="swimlane;fontStyle=0;childLayout=stackLayout;horizontal=1;startSize=30;horizontalStack=0;resizeParent=1;resizeParentMax=0;resizeLast=0;collapsible=1;marginBottom=0;whiteSpace=wrap;html=1;fillColor=#fff2cc;strokeColor=#d6b656;fontSize=26;rounded=1;" parent="1" vertex="1">
          <mxGeometry x="410" y="450" width="200" height="70" as="geometry" />
        </mxCell>
        <mxCell id="X4-yvwJKSVV4VdA6sDTU-25" value="cid" style="text;strokeColor=none;fillColor=none;align=left;verticalAlign=middle;spacingLeft=4;spacingRight=4;overflow=hidden;points=[[0,0.5],[1,0.5]];portConstraint=eastwest;rotatable=0;whiteSpace=wrap;html=1;" parent="X4-yvwJKSVV4VdA6sDTU-24" vertex="1">
          <mxGeometry y="30" width="200" height="40" as="geometry" />
        </mxCell>
        <mxCell id="X4-yvwJKSVV4VdA6sDTU-31" style="edgeStyle=orthogonalEdgeStyle;rounded=0;orthogonalLoop=1;jettySize=auto;html=1;entryX=1;entryY=0.5;entryDx=0;entryDy=0;" parent="1" source="X4-yvwJKSVV4VdA6sDTU-25" target="X4-yvwJKSVV4VdA6sDTU-21" edge="1">
          <mxGeometry relative="1" as="geometry">
            <Array as="points">
              <mxPoint x="310" y="500" />
              <mxPoint x="310" y="340" />
            </Array>
          </mxGeometry>
        </mxCell>
        <mxCell id="X4-yvwJKSVV4VdA6sDTU-35" style="edgeStyle=orthogonalEdgeStyle;rounded=0;orthogonalLoop=1;jettySize=auto;html=1;" parent="1" source="X4-yvwJKSVV4VdA6sDTU-20" target="X4-yvwJKSVV4VdA6sDTU-21" edge="1">
          <mxGeometry relative="1" as="geometry" />
        </mxCell>
        <mxCell id="X4-yvwJKSVV4VdA6sDTU-36" value="erp_px_cat_g1v2" style="swimlane;fontStyle=0;childLayout=stackLayout;horizontal=1;startSize=30;horizontalStack=0;resizeParent=1;resizeParentMax=0;resizeLast=0;collapsible=1;marginBottom=0;whiteSpace=wrap;html=1;fillColor=#fff2cc;strokeColor=#d6b656;fontSize=26;rounded=1;" parent="1" vertex="1">
          <mxGeometry x="390" y="100" width="200" height="70" as="geometry" />
        </mxCell>
        <mxCell id="X4-yvwJKSVV4VdA6sDTU-37" value="id" style="text;strokeColor=none;fillColor=none;align=left;verticalAlign=middle;spacingLeft=4;spacingRight=4;overflow=hidden;points=[[0,0.5],[1,0.5]];portConstraint=eastwest;rotatable=0;whiteSpace=wrap;html=1;" parent="X4-yvwJKSVV4VdA6sDTU-36" vertex="1">
          <mxGeometry y="30" width="200" height="40" as="geometry" />
        </mxCell>
        <mxCell id="X4-yvwJKSVV4VdA6sDTU-38" value="Product Categories" style="text;html=1;align=center;verticalAlign=middle;whiteSpace=wrap;rounded=0;" parent="1" vertex="1">
          <mxGeometry x="380" y="50" width="245" height="30" as="geometry" />
        </mxCell>
        <mxCell id="X4-yvwJKSVV4VdA6sDTU-39" style="edgeStyle=orthogonalEdgeStyle;rounded=0;orthogonalLoop=1;jettySize=auto;html=1;entryX=1;entryY=0.5;entryDx=0;entryDy=0;" parent="1" source="X4-yvwJKSVV4VdA6sDTU-37" target="X4-yvwJKSVV4VdA6sDTU-7" edge="1">
          <mxGeometry relative="1" as="geometry" />
        </mxCell>
        <mxCell id="X4-yvwJKSVV4VdA6sDTU-40" value="" style="rounded=1;whiteSpace=wrap;html=1;fillColor=none;dashed=1;strokeWidth=1;arcSize=4;" parent="1" vertex="1">
          <mxGeometry x="-360" y="10" width="620" height="550" as="geometry" />
        </mxCell>
        <mxCell id="X4-yvwJKSVV4VdA6sDTU-41" value="&lt;font style=&quot;font-size: 20px;&quot;&gt;&lt;b&gt;CRM&lt;/b&gt;&lt;/font&gt;" style="rounded=1;whiteSpace=wrap;html=1;fillColor=#dae8fc;strokeColor=#6c8ebf;" parent="1" vertex="1">
          <mxGeometry x="-120" y="-20" width="120" height="60" as="geometry" />
        </mxCell>
        <mxCell id="X4-yvwJKSVV4VdA6sDTU-42" value="" style="rounded=1;whiteSpace=wrap;html=1;fillColor=none;dashed=1;strokeWidth=1;arcSize=4;" parent="1" vertex="1">
          <mxGeometry x="300" y="20" width="500" height="550" as="geometry" />
        </mxCell>
        <mxCell id="X4-yvwJKSVV4VdA6sDTU-43" value="&lt;div&gt;&lt;b&gt;&lt;font style=&quot;font-size: 20px;&quot;&gt;ERP&lt;/font&gt;&lt;/b&gt;&lt;/div&gt;" style="rounded=1;whiteSpace=wrap;html=1;fillColor=#dae8fc;strokeColor=#6c8ebf;" parent="1" vertex="1">
          <mxGeometry x="480" y="-10" width="120" height="60" as="geometry" />
        </mxCell>
        <mxCell id="FpO7Ll_4V-Nb_hHfRug9-1" value="Produt" style="rounded=0;whiteSpace=wrap;html=1;fillColor=#e1d5e7;strokeColor=#9673a6;" vertex="1" parent="1">
          <mxGeometry x="410" y="170" width="160" height="20" as="geometry" />
        </mxCell>
        <mxCell id="FpO7Ll_4V-Nb_hHfRug9-2" value="Produt" style="rounded=0;whiteSpace=wrap;html=1;fillColor=#e1d5e7;strokeColor=#9673a6;" vertex="1" parent="1">
          <mxGeometry x="45" y="180" width="160" height="20" as="geometry" />
        </mxCell>
        <mxCell id="FpO7Ll_4V-Nb_hHfRug9-3" value="Customer" style="rounded=0;whiteSpace=wrap;html=1;fillColor=#d5e8d4;strokeColor=#82b366;" vertex="1" parent="1">
          <mxGeometry x="55" y="360" width="160" height="20" as="geometry" />
        </mxCell>
        <mxCell id="FpO7Ll_4V-Nb_hHfRug9-4" value="Customer" style="rounded=0;whiteSpace=wrap;html=1;fillColor=#d5e8d4;strokeColor=#82b366;" vertex="1" parent="1">
          <mxGeometry x="410" y="340" width="160" height="20" as="geometry" />
        </mxCell>
        <mxCell id="FpO7Ll_4V-Nb_hHfRug9-5" value="Customer" style="rounded=0;whiteSpace=wrap;html=1;fillColor=#d5e8d4;strokeColor=#82b366;" vertex="1" parent="1">
          <mxGeometry x="430" y="520" width="160" height="20" as="geometry" />
        </mxCell>
        <mxCell id="FpO7Ll_4V-Nb_hHfRug9-6" value="Sales" style="rounded=0;whiteSpace=wrap;html=1;fillColor=#1ba1e2;strokeColor=#006EAF;fontColor=#ffffff;" vertex="1" parent="1">
          <mxGeometry x="-268.75" y="260" width="160" height="20" as="geometry" />
        </mxCell>
      </root>
    </mxGraphModel>
  </diagram>
</mxfile>
